{"title":"Transformers.Age.of.Extinction.2014.NEW.CAM.READNFO.XViD-FANTA","uid":10522959,"size":2419505863,"categoryP":"video","categoryS":"movies","magnet":"?xt=urn:btih:2c973322fdcc69ba35871cb4c4bb3a7e11c29086&amp;dn=Transformers.Age.of.Extinction.2014.NEW.CAM.READNFO.XViD-FANTA&amp;tr=udp%3A%2F%2Ftracker.openbittorrent.com%3A80&amp;tr=udp%3A%2F%2Fopen.demonii.com%3A1337&amp;tr=udp%3A%2F%2Ftracker.coppersurfer.tk%3A6969&amp;tr=udp%3A%2F%2Fexodus.desync.com%3A6969","seeders":26,"leechers":5,"uploader":"xxxlavalxxx","files":-1,"time":1405010324,"description":"[IMG]http://i.imgur.com/Qumtkcm.jpg[/IMG]\n &lt;a href=&quot;\nhttp://www.imdb.com/title/tt2109248/&quot; rel=&quot;nofollow&quot; target=&quot;_NEW&quot;&gt;\nhttp://www.imdb.com/title/tt2109248/&lt;/a&gt;\n\n\nAn automobile mechanic and his daughter make a discovery that brings down the Autobots - and a paranoid government official - on them.\n\nDirector: Michael Bay\nWriter: Ehren Kruger\nStars: Mark Wahlberg, Nicola Peltz, Jack Reynor\nGenres: Action | Adventure | Sci-Fi\nCountry: USA\nLanguage: English\n\n\nGeneral\nComplete name                            : Transformers.Age.of.Extinction.2014.NEW.CAM.READNFO.XViD-FANTA/Transformers.Age.of.Extinction.2014.NEW.CAM.READNFO.XViD-FANTA.avi\nFormat                                   : AVI\nFormat/Info                              : Audio Video Interleave\nFormat profile                           : OpenDML\nFormat settings                          : rec\nFile size                                : 2.22 GiB\nDuration                                 : 2h 32mn\nOverall bit rate                         : 2 089 Kbps\nWriting application                      : AVI-Mux GUI 1.17.8.3, Feb 16 201019:42:50\n\nVideo\nID                                       : 0\nFormat                                   : MPEG-4 Visual\nFormat profile                           : Advanced Simple@L5\nFormat settings, BVOP                    : 1\nFormat settings, QPel                    : No\nFormat settings, GMC                     : No warppoints\nFormat settings, Matrix                  : Default (H.263)\nMuxing mode                              : Packed bitstream\nCodec ID                                 : XVID\nCodec ID/Hint                            : XviD\nDuration                                 : 2h 32mn\nBit rate                                 : 1 891 Kbps\nWidth                                    : 720 pixels\nHeight                                   : 400 pixels\nDisplay aspect ratio                     : 16:9\nFrame rate                               : 30.000 fps\nColor space                              : YUV\nChroma subsampling                       : 4:2:0\nBit depth                                : 8 bits\nScan type                                : Progressive\nCompression mode                         : Lossy\nBits/(Pixel*Frame)                       : 0.219\nStream size                              : 2.01 GiB (91%)\nWriting library                          : XviD 64\n\nAudio\nID                                       : 1\nFormat                                   : AC-3\nFormat/Info                              : Audio Coding 3\nMode extension                           : CM (complete main)\nCodec ID                                 : 2000\nDuration                                 : 2h 32mn\nBit rate mode                            : Constant\nBit rate                                 : 192 Kbps\nChannel(s)                               : 2 channels\nChannel positions                        : Front: L R\nSampling rate                            : 48.0 KHz\nBit depth                                : 16 bits\nCompression mode                         : Lossy\nStream size                              : 209 MiB (9%)\nAlignment                                : Aligned on interleaves\nInterleave, duration                     : 64 ms (1.92 video frames)\nInterleave, preload duration             : 192 ms\nTitle                                    : Transformers.Age.of.Extinction.2014.AUDIO\n\n\n\ninfo\n &lt;a href=&quot;\nhttp://i.imgur.com/2iWtfmp.png&quot; rel=&quot;nofollow&quot; target=&quot;_NEW&quot;&gt;\nhttp://i.imgur.com/2iWtfmp.png&lt;/a&gt;\n\n\nscreens\n &lt;a href=&quot;\nhttp://i.imgur.com/ciDu6uS.jpg&quot; rel=&quot;nofollow&quot; target=&quot;_NEW&quot;&gt;\nhttp://i.imgur.com/ciDu6uS.jpg&lt;/a&gt; &lt;a href=&quot;\nhttp://i.imgur.com/GVBMXG8.jpg&quot; rel=&quot;nofollow&quot; target=&quot;_NEW&quot;&gt;\nhttp://i.imgur.com/GVBMXG8.jpg&lt;/a&gt; &lt;a href=&quot;\nhttp://i.imgur.com/Bo68KKP.jpg&quot; rel=&quot;nofollow&quot; target=&quot;_NEW&quot;&gt;\nhttp://i.imgur.com/Bo68KKP.jpg&lt;/a&gt; &lt;a href=&quot;\nhttp://i.imgur.com/MMmGTix.jpg&quot; rel=&quot;nofollow&quot; target=&quot;_NEW&quot;&gt;\nhttp://i.imgur.com/MMmGTix.jpg&lt;/a&gt; &lt;a href=&quot;\nhttp://i.imgur.com/5UEhH6V.jpg&quot; rel=&quot;nofollow&quot; target=&quot;_NEW&quot;&gt;\nhttp://i.imgur.com/5UEhH6V.jpg&lt;/a&gt; &lt;a href=&quot;\nhttp://i.imgur.com/Y6V3Yzu.jpg&quot; rel=&quot;nofollow&quot; target=&quot;_NEW&quot;&gt;\nhttp://i.imgur.com/Y6V3Yzu.jpg&lt;/a&gt; &lt;a href=&quot;\nhttp://i.imgur.com/Lb3waGc.jpg&quot; rel=&quot;nofollow&quot; target=&quot;_NEW&quot;&gt;\nhttp://i.imgur.com/Lb3waGc.jpg&lt;/a&gt; &lt;a href=&quot;\nhttp://i.imgur.com/oeOHTB4.jpg&quot; rel=&quot;nofollow&quot; target=&quot;_NEW&quot;&gt;\nhttp://i.imgur.com/oeOHTB4.jpg&lt;/a&gt; &lt;a href=&quot;\nhttp://i.imgur.com/6egpxqv.jpg&quot; rel=&quot;nofollow&quot; target=&quot;_NEW&quot;&gt;\nhttp://i.imgur.com/6egpxqv.jpg&lt;/a&gt;","torrent":{"xt":"urn:btih:2c973322fdcc69ba35871cb4c4bb3a7e11c29086","amp;dn":"Transformers.Age.of.Extinction.2014.NEW.CAM.READNFO.XViD-FANTA","amp;tr":["udp%3A%2F%2Ftracker.openbittorrent.com%3A80","udp%3A%2F%2Fopen.demonii.com%3A1337","udp%3A%2F%2Ftracker.coppersurfer.tk%3A6969","udp%3A%2F%2Fexodus.desync.com%3A6969"],"infoHash":"2c973322fdcc69ba35871cb4c4bb3a7e11c29086","infoHashBuffer":{"type":"Buffer","data":[44,151,51,34,253,204,105,186,53,135,28,180,196,187,58,126,17,194,144,134]},"announce":[],"urlList":[]}}